<svg width="225" height="52" viewBox="0 0 225 52" fill="none" xmlns="http://www.w3.org/2000/svg">
<path d="M52.976 37V21H55.216L55.376 23.496C55.952 22.5147 56.6987 21.8 57.616 21.352C58.5547 20.904 59.5147 20.68 60.496 20.68C61.6267 20.68 62.6933 20.936 63.696 21.448C64.6987 21.96 65.4667 22.7493 66 23.816C66.3413 23.0907 66.8213 22.504 67.44 22.056C68.0587 21.5867 68.7307 21.2453 69.456 21.032C70.2027 20.7973 70.9067 20.68 71.568 20.68C72.592 20.68 73.5627 20.8933 74.48 21.32C75.4187 21.7467 76.1867 22.408 76.784 23.304C77.3813 24.2 77.68 25.352 77.68 26.76V37H75.12V27.016C75.12 25.5653 74.7573 24.52 74.032 23.88C73.3067 23.24 72.4107 22.92 71.344 22.92C70.512 22.92 69.7333 23.1227 69.008 23.528C68.2827 23.9333 67.696 24.5307 67.248 25.32C66.8213 26.1093 66.608 27.08 66.608 28.232V37H64.048V27.016C64.048 25.5653 63.6853 24.52 62.96 23.88C62.2347 23.24 61.3387 22.92 60.272 22.92C59.568 22.92 58.8427 23.112 58.096 23.496C57.3707 23.8587 56.7627 24.4453 56.272 25.256C55.7813 26.0667 55.536 27.1333 55.536 28.456V37H52.976ZM90.1 20.68C91.6147 20.68 92.948 21.0107 94.1 21.672C95.2733 22.3333 96.1907 23.2933 96.852 24.552C97.5133 25.7893 97.844 27.272 97.844 29C97.844 30.728 97.5133 32.2213 96.852 33.48C96.1907 34.7173 95.2733 35.6667 94.1 36.328C92.948 36.9893 91.6147 37.32 90.1 37.32C88.6067 37.32 87.2733 36.9893 86.1 36.328C84.9267 35.6667 84.0093 34.7173 83.348 33.48C82.6867 32.2213 82.356 30.728 82.356 29C82.356 27.272 82.6867 25.7893 83.348 24.552C84.0093 23.2933 84.9267 22.3333 86.1 21.672C87.2733 21.0107 88.6067 20.68 90.1 20.68ZM90.1 22.888C89.012 22.888 88.084 23.1333 87.316 23.624C86.548 24.1147 85.9507 24.8187 85.524 25.736C85.1187 26.632 84.916 27.72 84.916 29C84.916 30.2587 85.1187 31.3467 85.524 32.264C85.9507 33.1813 86.548 33.8853 87.316 34.376C88.084 34.8667 89.012 35.112 90.1 35.112C91.188 35.112 92.116 34.8667 92.884 34.376C93.652 33.8853 94.2387 33.1813 94.644 32.264C95.0707 31.3467 95.284 30.2587 95.284 29C95.284 27.72 95.0707 26.632 94.644 25.736C94.2387 24.8187 93.652 24.1147 92.884 23.624C92.116 23.1333 91.188 22.888 90.1 22.888ZM113.256 21H115.944L109.288 37H106.728L100.072 21H102.984L108.04 34.408L113.256 21ZM120.569 17.928C119.993 17.928 119.523 17.7573 119.161 17.416C118.819 17.0533 118.649 16.584 118.649 16.008C118.649 15.432 118.819 14.9733 119.161 14.632C119.523 14.2693 119.993 14.088 120.569 14.088C121.145 14.088 121.603 14.2693 121.945 14.632C122.307 14.9733 122.489 15.432 122.489 16.008C122.489 16.584 122.307 17.0533 121.945 17.416C121.603 17.7573 121.145 17.928 120.569 17.928ZM121.849 21V37H119.289V21H121.849ZM134.477 37.32C132.962 37.32 131.607 36.9893 130.413 36.328C129.239 35.6667 128.322 34.7173 127.661 33.48C126.999 32.2213 126.669 30.728 126.669 29C126.669 27.272 126.999 25.7893 127.661 24.552C128.322 23.2933 129.229 22.3333 130.381 21.672C131.533 21.0107 132.845 20.68 134.317 20.68C135.81 20.68 137.079 21 138.125 21.64C139.191 22.28 140.002 23.1547 140.557 24.264C141.111 25.352 141.389 26.5787 141.389 27.944C141.389 28.3067 141.378 28.6373 141.357 28.936C141.335 29.2347 141.303 29.5013 141.26 29.736H128.333V27.464H140.141L138.829 27.72C138.829 26.184 138.402 25 137.549 24.168C136.717 23.336 135.618 22.92 134.253 22.92C133.207 22.92 132.301 23.1653 131.533 23.656C130.786 24.1253 130.199 24.8187 129.773 25.736C129.367 26.632 129.165 27.72 129.165 29C129.165 30.2587 129.378 31.3467 129.805 32.264C130.231 33.1813 130.829 33.8853 131.597 34.376C132.386 34.8453 133.325 35.08 134.413 35.08C135.586 35.08 136.535 34.856 137.261 34.408C138.007 33.96 138.605 33.352 139.053 32.584L141.069 33.768C140.663 34.4933 140.141 35.1227 139.501 35.656C138.882 36.1893 138.146 36.6053 137.293 36.904C136.461 37.1813 135.522 37.32 134.477 37.32Z" fill="black"/>
<path d="M156.721 15.912V31.304C156.721 32.072 156.903 32.6267 157.265 32.968C157.649 33.288 158.172 33.448 158.833 33.448C159.345 33.448 159.783 33.3947 160.145 33.288C160.529 33.16 160.871 32.9787 161.169 32.744L161.745 36.104C161.212 36.488 160.54 36.7867 159.729 37C158.919 37.2133 158.087 37.32 157.233 37.32C156.017 37.32 154.961 37.1493 154.065 36.808C153.191 36.4667 152.508 35.9227 152.017 35.176C151.548 34.4293 151.303 33.4373 151.281 32.2V17.416L156.721 15.912ZM161.489 21V24.872H148.529V21H161.489ZM168.322 19.144C167.213 19.144 166.402 18.9413 165.89 18.536C165.399 18.1093 165.154 17.448 165.154 16.552C165.154 15.6347 165.399 14.9733 165.89 14.568C166.402 14.1413 167.213 13.928 168.322 13.928C169.41 13.928 170.21 14.1413 170.722 14.568C171.234 14.9733 171.49 15.6347 171.49 16.552C171.49 17.448 171.234 18.1093 170.722 18.536C170.21 18.9413 169.41 19.144 168.322 19.144ZM171.042 21V37H165.602V21H171.042ZM176.515 37V21H181.379L181.539 24.104C182.051 22.9733 182.765 22.12 183.683 21.544C184.621 20.968 185.699 20.68 186.915 20.68C188.109 20.68 189.144 20.9467 190.019 21.48C190.893 22.0133 191.544 22.8027 191.971 23.848C192.312 23.144 192.749 22.5573 193.283 22.088C193.837 21.6187 194.467 21.2667 195.171 21.032C195.875 20.7973 196.6 20.68 197.347 20.68C198.413 20.68 199.352 20.8933 200.163 21.32C200.973 21.7253 201.613 22.3547 202.083 23.208C202.573 24.04 202.819 25.0853 202.819 26.344V37H197.379V27.592C197.379 26.568 197.176 25.8533 196.771 25.448C196.387 25.0427 195.864 24.84 195.203 24.84C194.669 24.84 194.179 24.9787 193.731 25.256C193.304 25.512 192.973 25.9067 192.739 26.44C192.504 26.9733 192.387 27.6453 192.387 28.456V37H186.947V27.592C186.947 26.568 186.744 25.8533 186.339 25.448C185.933 25.0427 185.411 24.84 184.771 24.84C184.28 24.84 183.811 24.968 183.363 25.224C182.936 25.48 182.595 25.8853 182.339 26.44C182.083 26.9733 181.955 27.6773 181.955 28.552V37H176.515ZM216.048 37.32C214.277 37.32 212.741 36.9893 211.44 36.328C210.16 35.6667 209.168 34.7173 208.464 33.48C207.76 32.2427 207.408 30.7493 207.408 29C207.408 27.2507 207.76 25.7573 208.464 24.52C209.168 23.2827 210.149 22.3333 211.408 21.672C212.688 21.0107 214.149 20.68 215.792 20.68C217.477 20.68 218.906 21.0107 220.08 21.672C221.274 22.312 222.181 23.208 222.8 24.36C223.418 25.4907 223.728 26.792 223.728 28.264C223.728 28.648 223.717 29.032 223.696 29.416C223.674 29.8 223.642 30.12 223.6 30.376H210.928V27.464H221.2L218.608 28.456C218.608 27.176 218.373 26.1947 217.904 25.512C217.456 24.8293 216.752 24.488 215.792 24.488C215.109 24.488 214.522 24.648 214.032 24.968C213.562 25.288 213.2 25.7893 212.944 26.472C212.709 27.1547 212.592 28.0293 212.592 29.096C212.592 30.1413 212.73 30.9947 213.008 31.656C213.285 32.296 213.68 32.7653 214.192 33.064C214.704 33.3413 215.322 33.48 216.048 33.48C216.858 33.48 217.498 33.32 217.968 33C218.458 32.68 218.821 32.232 219.056 31.656L223.408 33.096C223.109 34.0133 222.586 34.792 221.84 35.432C221.114 36.0507 220.24 36.52 219.216 36.84C218.213 37.16 217.157 37.32 216.048 37.32Z" fill="url(#paint0_linear_2_29)" style="mix-blend-mode:darken"/>
<circle cx="25.7374" cy="25.7373" r="18" transform="rotate(-25.7102 25.7374 25.7373)" fill="url(#paint1_linear_2_29)" style="mix-blend-mode:darken"/>
<g clip-path="url(#clip0_2_29)">
<path d="M31.9607 21.449C31.8892 21.3936 31.7974 21.3712 31.7084 21.3874L18.6175 23.767C18.5284 23.7832 18.4504 23.8364 18.4029 23.9134C18.3554 23.9905 18.3429 24.084 18.3683 24.1709L21.9293 36.3032C21.9753 36.4599 22.132 36.5566 22.2926 36.5274L32.759 34.6249C32.9196 34.5957 33.0323 34.45 33.0202 34.2872L32.0837 21.6778C32.077 21.5875 32.0323 21.5043 31.9607 21.449ZM25.0928 35.3696L22.3354 23.7399L24.9631 23.2623L27.0976 35.0052L25.0928 35.3696ZM19.0807 24.3316L21.7066 23.8542L24.464 35.4839L22.4609 35.848L19.0807 24.3316ZM32.3623 34.0482L30.3593 34.4123L29.6864 29.1342C29.6641 28.9594 29.5042 28.8357 29.3294 28.858C29.154 28.88 29.0309 29.0401 29.0532 29.2149L29.7304 34.5266L27.7256 34.891L25.5911 23.1481L28.2187 22.6705L28.8917 27.9486C28.9139 28.1234 29.0738 28.2471 29.2486 28.2248C29.2544 28.2241 29.26 28.2232 29.2656 28.2222C29.4314 28.192 29.5464 28.037 29.5248 27.8679L28.8476 22.5562L31.4734 22.0789L32.3623 34.0482Z" fill="white"/>
<path d="M24.4816 18.8293C24.3082 18.8608 24.1932 19.0269 24.2247 19.2003C24.2562 19.3738 24.4224 19.4888 24.5958 19.4573C25.0438 19.3758 25.4943 19.5504 25.7715 19.9129C25.8468 20.0114 25.9683 20.0538 26.0824 20.0331C26.1305 20.0243 26.1774 20.0043 26.2189 19.9726C26.359 19.8655 26.3857 19.6652 26.2786 19.5252C25.8552 18.9714 25.1666 18.7048 24.4816 18.8293Z" fill="white"/>
<path d="M21.3368 22.1518C21.2858 22.3206 21.3813 22.4986 21.5501 22.5496C21.6001 22.5647 21.651 22.5669 21.6991 22.5582C21.8133 22.5374 21.912 22.455 21.9479 22.3363C22.0797 21.8994 22.44 21.5775 22.888 21.496C23.0614 21.4645 23.1765 21.2984 23.1449 21.125C23.1134 20.9515 22.9473 20.8365 22.7739 20.868C22.0889 20.9925 21.5382 21.4844 21.3368 22.1518Z" fill="white"/>
<path d="M18.481 23.1422C18.4886 23.1414 18.4962 23.1403 18.5036 23.1389C18.667 23.1093 18.7818 22.9578 18.7635 22.7902C18.7567 22.7285 18.7547 22.6655 18.7575 22.6029C18.7778 22.1479 19.0483 21.7476 19.4633 21.558C19.5492 21.5188 19.6133 21.4436 19.6384 21.3525C19.6635 21.2615 19.647 21.164 19.5933 21.0863C19.334 20.7109 19.3069 20.2285 19.5226 19.8275C19.7382 19.4264 20.1557 19.183 20.6118 19.1923C20.7061 19.1943 20.7966 19.1543 20.8588 19.0832C20.9209 19.012 20.9483 18.9171 20.9337 18.8238C20.8629 18.373 21.0478 17.9266 21.4161 17.6588C21.7845 17.391 22.2661 17.3529 22.6731 17.5592C22.7573 17.6019 22.856 17.605 22.9429 17.568C23.0297 17.5308 23.0956 17.4572 23.1229 17.3667C23.2548 16.93 23.615 16.608 24.0631 16.5266C24.5111 16.4451 24.9616 16.6197 25.2388 16.9822C25.2961 17.0572 25.3838 17.103 25.4781 17.1072C25.5724 17.1114 25.6638 17.0736 25.7276 17.004C26.0359 16.6676 26.5001 16.5339 26.9392 16.655C27.3782 16.776 27.7083 17.1287 27.8007 17.5756C27.8199 17.668 27.8789 17.7473 27.9621 17.792C28.0453 17.8367 28.144 17.8424 28.2317 17.8073C28.6554 17.6381 29.1317 17.719 29.4747 18.0185C29.8178 18.318 29.9622 18.7791 29.8516 19.2217C29.8287 19.3133 29.8476 19.4104 29.9031 19.4867C29.9586 19.5631 30.0451 19.611 30.1393 19.6175C30.5945 19.6488 30.9886 19.9284 31.1676 20.3471C31.1923 20.4047 31.2126 20.4644 31.228 20.5245C31.2716 20.6952 31.4455 20.7982 31.6163 20.7546C31.787 20.7109 31.89 20.537 31.8464 20.3663C31.8229 20.2745 31.792 20.1836 31.7545 20.096C31.5265 19.563 31.0709 19.1775 30.5233 19.0357C30.5574 18.4711 30.3312 17.9189 29.8946 17.5376C29.4579 17.1562 28.8808 17.0067 28.3253 17.1165C28.111 16.5931 27.6676 16.1936 27.1088 16.0395C26.5499 15.8854 25.9645 16.0013 25.5122 16.3411C25.0921 15.9625 24.5193 15.7949 23.9489 15.8986C23.3785 16.0022 22.9013 16.3606 22.6413 16.863C22.0984 16.7041 21.5097 16.8017 21.0408 17.1426C20.5719 17.4834 20.2975 18.0134 20.2811 18.5788C19.7221 18.6713 19.2349 19.0146 18.9604 19.5252C18.6859 20.0357 18.6685 20.6323 18.8991 21.1488C18.4365 21.4742 18.1456 21.9953 18.1198 22.5744C18.1155 22.6696 18.1186 22.7657 18.1289 22.8598C18.1482 23.035 18.3058 23.1615 18.481 23.1422Z" fill="white"/>
</g>
<defs>
<linearGradient id="paint0_linear_2_29" x1="137.5" y1="7" x2="137.5" y2="45" gradientUnits="userSpaceOnUse">
<stop stop-color="#9600FF"/>
<stop offset="0.901085" stop-color="#6C84FF"/>
</linearGradient>
<linearGradient id="paint1_linear_2_29" x1="25.7374" y1="7.73735" x2="25.7374" y2="43.7373" gradientUnits="userSpaceOnUse">
<stop stop-color="#9600FF"/>
<stop offset="0.901085" stop-color="#6C84FF"/>
</linearGradient>
<clipPath id="clip0_2_29">
<rect width="20" height="20" fill="white" transform="translate(14.1101 17.687) rotate(-10.3024)"/>
</clipPath>
</defs>
</svg>
